<svg width="444" height="183" viewBox="0 0 444 183" fill="none" xmlns="http://www.w3.org/2000/svg">
<path fill-rule="evenodd" clip-rule="evenodd" d="M261 178H361C402.421 178 436 144.421 436 103V80C436 38.5786 402.421 5 361 5L261.28 5C262.705 6.32406 264.094 7.71853 265.442 9.18341L340.912 91.1787L261 178Z" fill="#F8BC46"/>
<path fill-rule="evenodd" clip-rule="evenodd" d="M287.5 0C236.966 0 196 40.9659 196 91.5C196 142.034 236.966 183 287.5 183H352.5C403.034 183 444 142.034 444 91.5C444 40.9659 403.034 0 352.5 0H287.5ZM284.5 29C249.982 29 222 56.9822 222 91.5C222 126.018 249.982 154 284.5 154H356.5C391.018 154 419 126.018 419 91.5C419 56.9822 391.018 29 356.5 29H284.5Z" fill="#1C546A"/>
<path fill-rule="evenodd" clip-rule="evenodd" d="M77 168C119.526 168 154 133.526 154 91C154 48.4741 119.526 14 77 14C34.4741 14 0 48.4741 0 91C0 133.526 34.4741 168 77 168ZM77 145C106.823 145 131 120.823 131 91C131 61.1766 106.823 37 77 37C47.1766 37 23 61.1766 23 91C23 120.823 47.1766 145 77 145Z" fill="#1C546A"/>
<path fill-rule="evenodd" clip-rule="evenodd" d="M77 168C119.526 168 154 133.526 154 91C154 48.4741 119.526 14 77 14C34.4741 14 0 48.4741 0 91C0 133.526 34.4741 168 77 168ZM77 145C106.823 145 131 120.823 131 91C131 61.1766 106.823 37 77 37C47.1766 37 23 61.1766 23 91C23 120.823 47.1766 145 77 145Z" fill="#1C546A"/>
<path fill-rule="evenodd" clip-rule="evenodd" d="M8.91643 127C3.22403 116.257 0 104.005 0 91C0 48.4741 34.4741 14 77 14C119.526 14 154 48.4741 154 91C154 104.005 150.776 116.257 145.084 127H117.25C125.801 117.446 131 104.83 131 91C131 61.1766 106.823 37 77 37C47.1766 37 23 61.1766 23 91C23 104.83 28.1994 117.446 36.7501 127H8.91643Z" fill="#1FA9AC"/>
<path d="M71 90C71 70.67 86.67 55 106 55H230C249.33 55 265 70.67 265 90V92C265 111.33 249.33 127 230 127H106C86.67 127 71 111.33 71 92V90Z" fill="#1C546A"/>
<path d="M101 91C101 84.9249 105.925 80 112 80H224C230.075 80 235 84.9249 235 91V91C235 97.0751 230.075 102 224 102H112C105.925 102 101 97.0751 101 91V91Z" fill="white"/>
</svg>
