<svg width="444" height="369" viewBox="0 0 444 369" fill="none" xmlns="http://www.w3.org/2000/svg">
<path d="M335.432 366.125V198.875H371.853V333.777H435.59V366.125H335.432Z" fill="#1FA9AC"/>
<path d="M203.564 198.875V301.429C203.564 313.25 205.881 322.116 210.513 328.026C215.146 333.777 222.893 336.652 233.755 336.652C244.618 336.652 252.365 333.777 256.998 328.026C261.63 322.116 263.947 313.25 263.947 301.429V198.875H299.409V297.596C299.409 309.896 298.211 320.598 295.815 329.704C293.579 338.649 289.825 346.077 284.553 351.988C279.282 357.738 272.493 362.051 264.186 364.927C255.88 367.642 245.736 369 233.755 369C221.775 369 211.631 367.642 203.325 364.927C195.018 362.051 188.229 357.738 182.958 351.988C177.686 346.077 173.852 338.649 171.456 329.704C169.22 320.598 168.102 309.896 168.102 297.596V198.875H203.564Z" fill="#1FA9AC"/>
<path d="M138.963 366.125H20.5942V333.298L72.1108 289.209C76.7433 285.216 80.657 281.621 83.8518 278.427C87.0466 275.072 89.6025 271.877 91.5194 268.842C93.596 265.647 95.0337 262.532 95.8324 259.497C96.7909 256.462 97.2701 253.187 97.2701 249.673V246.319C97.2701 243.124 96.6311 240.328 95.3532 237.932C94.0753 235.536 92.398 233.539 90.3213 231.942C88.2447 230.344 85.8486 229.146 83.133 228.348C80.5771 227.549 77.9414 227.15 75.2258 227.15C71.2322 227.15 67.7179 227.789 64.6828 229.066C61.8075 230.344 59.2516 232.102 57.0152 234.338C54.9386 236.415 53.1814 238.891 51.7438 241.766C50.3061 244.482 49.1879 247.437 48.3892 250.632L17 238.651C18.9169 232.9 21.5526 227.469 24.9072 222.357C28.2618 217.086 32.415 212.533 37.367 208.699C42.4788 204.706 48.4691 201.591 55.3379 199.355C62.2068 197.118 69.9543 196 78.5803 196C87.6856 196 95.7525 197.278 102.781 199.834C109.81 202.39 115.72 205.904 120.512 210.377C125.464 214.849 129.218 220.201 131.774 226.431C134.33 232.501 135.608 239.13 135.608 246.319C135.608 253.507 134.41 260.056 132.014 265.967C129.618 271.877 126.343 277.468 122.19 282.74C118.196 287.851 113.484 292.723 108.053 297.356C102.621 301.988 96.9506 306.701 91.0402 311.493L59.8906 335.934H138.963V366.125Z" fill="#1FA9AC"/>
<path fill-rule="evenodd" clip-rule="evenodd" d="M261 178H361C402.421 178 436 144.421 436 103V80C436 38.5786 402.421 5 361 5L261.28 5C262.705 6.32406 264.094 7.71853 265.442 9.18341L340.912 91.1787L261 178Z" fill="#F8BC46"/>
<path fill-rule="evenodd" clip-rule="evenodd" d="M287.5 0C236.966 0 196 40.9659 196 91.5C196 142.034 236.966 183 287.5 183H352.5C403.034 183 444 142.034 444 91.5C444 40.9659 403.034 0 352.5 0H287.5ZM284.5 29C249.982 29 222 56.9822 222 91.5C222 126.018 249.982 154 284.5 154H356.5C391.018 154 419 126.018 419 91.5C419 56.9822 391.018 29 356.5 29H284.5Z" fill="#1C546A"/>
<path fill-rule="evenodd" clip-rule="evenodd" d="M77 168C119.526 168 154 133.526 154 91C154 48.4741 119.526 14 77 14C34.4741 14 0 48.4741 0 91C0 133.526 34.4741 168 77 168ZM77 145C106.823 145 131 120.823 131 91C131 61.1766 106.823 37 77 37C47.1766 37 23 61.1766 23 91C23 120.823 47.1766 145 77 145Z" fill="#1C546A"/>
<path fill-rule="evenodd" clip-rule="evenodd" d="M77 168C119.526 168 154 133.526 154 91C154 48.4741 119.526 14 77 14C34.4741 14 0 48.4741 0 91C0 133.526 34.4741 168 77 168ZM77 145C106.823 145 131 120.823 131 91C131 61.1766 106.823 37 77 37C47.1766 37 23 61.1766 23 91C23 120.823 47.1766 145 77 145Z" fill="#1C546A"/>
<path fill-rule="evenodd" clip-rule="evenodd" d="M8.91643 127C3.22403 116.257 0 104.005 0 91C0 48.4741 34.4741 14 77 14C119.526 14 154 48.4741 154 91C154 104.005 150.776 116.257 145.084 127H117.25C125.801 117.446 131 104.83 131 91C131 61.1766 106.823 37 77 37C47.1766 37 23 61.1766 23 91C23 104.83 28.1994 117.446 36.7501 127H8.91643Z" fill="#1FA9AC"/>
<path d="M71 90C71 70.67 86.67 55 106 55H230C249.33 55 265 70.67 265 90V92C265 111.33 249.33 127 230 127H106C86.67 127 71 111.33 71 92V90Z" fill="#1C546A"/>
<path d="M101 91C101 84.9249 105.925 80 112 80H224C230.075 80 235 84.9249 235 91V91C235 97.0751 230.075 102 224 102H112C105.925 102 101 97.0751 101 91V91Z" fill="white"/>
</svg>
